<svg width="20" height="20" viewBox="0 0 20 20" fill="none" xmlns="http://www.w3.org/2000/svg">
<path d="M9.1665 12.5H10.8332" stroke="white" stroke-width="1.5" stroke-linecap="round" stroke-linejoin="round"/>
<path d="M10 15V18.3333" stroke="white" stroke-width="1.5"/>
<path d="M6.6665 18.3335H13.3332" stroke="white" stroke-width="1.5" stroke-linecap="round"/>
<path d="M7.49984 1.66748C5.31195 1.67444 4.13025 1.73938 3.2656 2.34482C2.90726 2.59573 2.59559 2.9074 2.34469 3.26573C1.6665 4.23427 1.6665 5.60061 1.6665 8.33331C1.6665 11.066 1.6665 12.4323 2.34469 13.4009C2.59559 13.7592 2.90726 14.0709 3.2656 14.3218C4.23414 15 5.60048 15 8.33317 15H11.6665C14.3992 15 15.7655 15 16.7341 14.3218C17.0924 14.0709 17.4041 13.7592 17.655 13.4009C18.2604 12.5362 18.3253 11.3545 18.3323 9.16666" stroke="white" stroke-width="1.5" stroke-linecap="round"/>
<path d="M16.25 3.4551L16.3025 3.41722C17.184 2.78075 17.6248 2.46252 17.9791 2.61618C18.3333 2.76984 18.3333 3.27925 18.3333 4.2981V4.86825C18.3333 5.88709 18.3333 6.3965 17.9791 6.55016C17.6248 6.70382 17.184 6.38559 16.3025 5.74912L16.25 5.71125M12.9167 7.49984H13.3333C14.7082 7.49984 15.3957 7.49984 15.8228 7.1261C16.25 6.75235 16.25 6.15082 16.25 4.94775V4.21859C16.25 3.01552 16.25 2.414 15.8228 2.04025C15.3957 1.6665 14.7082 1.6665 13.3333 1.6665H12.9167C11.5417 1.6665 10.8542 1.6665 10.4272 2.04025C10 2.414 10 3.01552 10 4.21859V4.94775C10 6.15082 10 6.75235 10.4272 7.1261C10.8542 7.49984 11.5417 7.49984 12.9167 7.49984Z" stroke="white" stroke-width="1.5" stroke-linecap="round"/>
</svg>
