<svg width="20" height="20" viewBox="0 0 20 20" fill="none" xmlns="http://www.w3.org/2000/svg">
<path d="M15.8254 15.8334H15.8333M15.8254 15.8334C15.3065 16.348 14.3661 16.2198 13.7066 16.2198C12.8971 16.2198 12.5073 16.3782 11.9295 16.9559C11.4376 17.4479 10.7781 18.3334 10 18.3334C9.22192 18.3334 8.56242 17.4479 8.07048 16.9559C7.49273 16.3782 7.10291 16.2198 6.29338 16.2198C5.6339 16.2198 4.69348 16.348 4.17458 15.8334C3.65151 15.3147 3.78023 14.3704 3.78023 13.7067C3.78023 12.8679 3.5968 12.4822 2.99948 11.8849C2.11095 10.9964 1.66668 10.5521 1.66667 10.0001C1.66668 9.448 2.11093 9.00375 2.99946 8.11522C3.53267 7.58201 3.78023 7.05365 3.78023 6.29346C3.78023 5.63396 3.65208 4.69353 4.16667 4.17461C4.68536 3.65156 5.62967 3.7803 6.2934 3.7803C7.05356 3.7803 7.58193 3.53275 8.11513 2.99956C9.00367 2.11101 9.44792 1.66675 10 1.66675C10.5521 1.66675 10.9963 2.11101 11.8848 2.99956C12.4179 3.53264 12.9463 3.7803 13.7066 3.7803C14.3661 3.7803 15.3066 3.65214 15.8255 4.16675C16.3485 4.68544 16.2198 5.62974 16.2198 6.29346C16.2198 7.13223 16.4033 7.51789 17.0005 8.11522C17.8891 9.00375 18.3333 9.448 18.3333 10.0001C18.3333 10.5521 17.8891 10.9964 17.0005 11.8849C16.4032 12.4822 16.2198 12.8679 16.2198 13.7067C16.2198 14.3704 16.3485 15.3147 15.8254 15.8334Z" stroke="#261148" stroke-width="1.5"/>
<path d="M7.5 10.7442C7.5 10.7442 8.5 11.2873 9 12.0834C9 12.0834 10.5 8.95841 12.5 7.91675" stroke="#261148" stroke-width="1.5" stroke-linecap="round" stroke-linejoin="round"/>
</svg>
