<svg width="270" height="57" viewBox="0 0 270 57" fill="none" xmlns="http://www.w3.org/2000/svg">
<rect width="270" height="57" rx="28.5" fill="#261148"/>
<rect x="12" y="22" width="5" height="11" rx="2.5" fill="white"/>
<rect x="22" y="9" width="5" height="37" rx="2.5" fill="white"/>
<rect x="32" y="16" width="5" height="23" rx="2.5" fill="white"/>
<rect x="42" y="24" width="5" height="7" rx="2.5" fill="white"/>
<rect x="52" y="9" width="5" height="37" rx="2.5" fill="white"/>
<rect x="62" y="13" width="5" height="29" rx="2.5" fill="white"/>
<rect x="72" y="11" width="5" height="33" rx="2.5" fill="white"/>
<rect x="82" y="19" width="5" height="17" rx="2.5" fill="white"/>
<rect x="92" y="9" width="5" height="37" rx="2.5" fill="white"/>
<rect x="102" y="24" width="5" height="7" rx="2.5" fill="white"/>
<rect x="112" y="16" width="5" height="23" rx="2.5" fill="white"/>
<rect x="122" y="9" width="5" height="37" rx="2.5" fill="white"/>
<rect x="132" y="22" width="5" height="11" rx="2.5" fill="white"/>
<rect x="142" y="13" width="5" height="29" rx="2.5" fill="white"/>
<rect x="152" y="9" width="5" height="37" rx="2.5" fill="white"/>
<rect x="162" y="22" width="5" height="11" rx="2.5" fill="white"/>
<rect x="172" y="9" width="5" height="37" rx="2.5" fill="white"/>
<rect x="182" y="16" width="5" height="23" rx="2.5" fill="white"/>
<rect x="192" y="9" width="5" height="37" rx="2.5" fill="white"/>
<rect x="202" y="22" width="5" height="11" rx="2.5" fill="white"/>
<rect x="212" y="9" width="5" height="37" rx="2.5" fill="white"/>
<rect x="222" y="24" width="5" height="7" rx="2.5" fill="white"/>
<rect x="232" y="9" width="5" height="37" rx="2.5" fill="white"/>
<rect x="242" y="22" width="5" height="11" rx="2.5" fill="white"/>
<rect x="252" y="19" width="5" height="17" rx="2.5" fill="white"/>
</svg>
