<svg width="20" height="20" viewBox="0 0 20 20" fill="none" xmlns="http://www.w3.org/2000/svg">
<path d="M12.0442 10.7457C11.918 11.2679 11.3214 11.637 10.1282 12.3752C8.97475 13.0887 8.39808 13.4455 7.93327 13.3021C7.74112 13.2427 7.56604 13.1302 7.42485 12.975C7.08333 12.5998 7.08333 11.8721 7.08333 10.4167C7.08333 8.96125 7.08333 8.23348 7.42485 7.85829C7.56604 7.70317 7.74112 7.59057 7.93327 7.53127C8.39808 7.38787 8.97475 7.74464 10.1282 8.45817C11.3214 9.19633 11.918 9.56542 12.0442 10.0877C12.0963 10.3032 12.0963 10.5301 12.0442 10.7457Z" stroke="#141B34" stroke-width="1.5" stroke-linejoin="round"/>
<path d="M17.4981 9.16667C17.5 9.55842 17.5 9.97442 17.5 10.4167C17.5 14.1486 17.5 16.0146 16.3407 17.174C15.1813 18.3333 13.3153 18.3333 9.58333 18.3333C5.85138 18.3333 3.98541 18.3333 2.82603 17.174C1.66667 16.0146 1.66667 14.1486 1.66667 10.4167C1.66667 6.68472 1.66667 4.81874 2.82603 3.65937C3.98541 2.5 5.85138 2.5 9.58333 2.5C10.0256 2.5 10.4416 2.5 10.8333 2.50193" stroke="#141B34" stroke-width="1.5" stroke-linecap="round"/>
<path d="M15.4167 1.66675L15.6316 2.24761C15.9134 3.00926 16.0543 3.3901 16.3322 3.66791C16.61 3.94572 16.9908 4.08664 17.7525 4.36848L18.3333 4.58341L17.7525 4.79835C16.9908 5.08019 16.61 5.22111 16.3322 5.49892C16.0543 5.77673 15.9134 6.15756 15.6316 6.91922L15.4167 7.50008L15.2017 6.91922C14.9199 6.15756 14.779 5.77673 14.5012 5.49892C14.2233 5.22111 13.8425 5.08019 13.0808 4.79835L12.5 4.58341L13.0808 4.36848C13.8425 4.08664 14.2233 3.94572 14.5012 3.66791C14.779 3.3901 14.9199 3.00926 15.2017 2.24761L15.4167 1.66675Z" stroke="#141B34" stroke-width="1.5" stroke-linejoin="round"/>
</svg>
